<svg id="Calque_1" data-name="Calque 1" xmlns="http://www.w3.org/2000/svg" xmlns:xlink="http://www.w3.org/1999/xlink" viewBox="0 0 318.26 186.97"><defs><style>.cls-1{fill:none;}.cls-2{clip-path:url(#clip-path);}.cls-3{clip-path:url(#clip-path-2);}.cls-4{fill:#121111;}.cls-5{fill:#171415;}.cls-6{fill:#060505;}.cls-7{fill:#161515;}.cls-8{fill:#131111;}.cls-9{fill:#f6f6f6;}.cls-10{fill:#1e1c1e;}.cls-11{fill:#332f33;}.cls-12{fill:#3d393b;}.cls-13{fill:#13151a;}.cls-14{fill:#161414;}.cls-15{fill:#29282b;}.cls-16{fill:#3a3237;}.cls-17{fill:#272326;}.cls-18{fill:#09090a;}.cls-19{fill:#2b2b2b;}.cls-20{fill:#151315;}.cls-21{fill:#0f0f11;}.cls-22{fill:#151b22;}.cls-23{fill:#272425;}.cls-24{fill:#393339;}.cls-25{fill:#473e3c;}.cls-26{fill:#474144;}.cls-27{fill:#a29da1;}.cls-28{fill:#4c4748;}.cls-29{fill:#0b0a0a;}.cls-30{fill:#484443;}.cls-31{fill:#151515;}.cls-32{fill:#434344;}.cls-33{fill:#77787c;}.cls-34{fill:#181617;}.cls-35{fill:#0b0a0b;}.cls-36{fill:#222022;}.cls-37{fill:#282628;}.cls-38{fill:#2c292a;}.cls-39{fill:#141416;}.cls-40{fill:#0c0b0c;}.cls-41{fill:#0f0e0e;}.cls-42{fill:#1f1d1f;}.cls-43{fill:#100f10;}.cls-44{fill:#b9b9b9;}.cls-45{fill:#685e68;}.cls-46{fill:#494141;}.cls-47{fill:#4f4649;}.cls-48{fill:#080808;}.cls-49{fill:#1a191a;}.cls-50{fill:#171517;}.cls-51{fill:#111;}.cls-52{fill:#c9c9c9;}.cls-53{fill:#0b0a0c;}.cls-54{fill:#45383e;}</style><clipPath id="clip-path" transform="translate(-8.43 -6.95)"><polyline class="cls-1" points="0 204.72 333.84 204.72 333.84 0 0 0"/></clipPath><clipPath id="clip-path-2" transform="translate(-8.43 -6.95)"><rect class="cls-1" width="333.84" height="204.72"/></clipPath></defs><title>signature_finale2</title><g class="cls-2"><g class="cls-3"><path d="M9.14,91.34c-.17-1.92,0-3.84,0-5.76a.94.94,0,0,1,0-1.2,62.14,62.14,0,0,1,0-7c.21-1.84.61-3.66.93-5.5a1.89,1.89,0,0,1,.21-1c.21-1.66.51-3.31.62-5,.14-2.25.21-4.51.3-6.76a42.64,42.64,0,0,1,.41-4.86c.5-3.17-.42-6.39.56-9.52a2.25,2.25,0,0,0-.08-1.7.84.84,0,0,1-.08-.58c.58-1.73-.14-3.39-.25-5.09a14.9,14.9,0,0,1,.47-5.28A16.36,16.36,0,0,0,12.53,26c-.2-2.68.31-5.34.17-8a1.51,1.51,0,0,1-.18-.88,1.81,1.81,0,0,0-.16-1.59A2.19,2.19,0,0,1,12.58,13a7.09,7.09,0,0,0,.9-1.91,5,5,0,0,1,.66-1.22c.41-.42.27-1,.27-1.46A.6.6,0,0,1,15,7.78c.33,0,.35.34.35.62V9.71c.19,0,.22-.06.25-.18.11-.42,0-1,.61-1.11s1,.19,1.31.72c.14.26.32.85.52,0,.09-.44.53,0,.57.12A14,14,0,0,1,19,10.81a2.52,2.52,0,0,1,.23.65c-.29,1.3.41,2.28,1,3.3.17.25.09.62.38.82.79,1,1.66,1.89,2.36,2.92a32.85,32.85,0,0,1,2.8,5.9c0,.07.11.19.08.22-1.3,1.48.47,2.26.83,3.31A23,23,0,0,0,29,32.76c.89,1.41,1.14,3.11,2.24,4.41a1.43,1.43,0,0,1,.27,1.31.51.51,0,0,0,.32.66c1.82,1,2.09,2.92,3,4.49a1.72,1.72,0,0,1,.68,1.45,21,21,0,0,0,1.28,2.38c.36.41.43,1,1.21.63.52-.23.47.25.29.52s-.51.52-.27,1a6.83,6.83,0,0,0,1.42-1.52c1.34-1.6,2.7-3.19,4-4.81,2-2.41,4.08-4.66,5.88-7.2,1.44-2,2.34-4.38,3.92-6.31a2.14,2.14,0,0,0,.54-1.62c0-.23.36-.53-.28-.62s0-.67,0-.68c1.32-.45,1-1.85,1.62-2.71.07-.09-.14-.32.11-.37,2-.37,1.56-2.15,2.11-3.4s.85-2.91,1.77-4.24a3.54,3.54,0,0,0,.68-3.33,6.82,6.82,0,0,1,0-4.69c1.05,1.37,1-.29,1.43-.51.23-.11.13-.82.72-.62s1.58-.26,2.08.61a23.54,23.54,0,0,0,3.05,3.86,22.88,22.88,0,0,1,1.9,2.89c1.35,2,2.69,4,4.09,6a4.65,4.65,0,0,1,1,2.63c.06,3.09.15,6.18.21,9.28,0,1.36.35,2.84-.06,4.07C72.89,40.53,74,44.8,73.64,49c-.2,2.3-.88,4.51-1.24,6.78a40.65,40.65,0,0,0-1,7,7.8,7.8,0,0,1-.74,2.68A13.39,13.39,0,0,0,70,68.76c-.12,1.16-.48,2.3-.72,3.46-.29,1.44-1,2.86-.23,4.36.24.51-.48.59-.48,1.08,0,2.33-.74,4.62-.28,7,.08.37-.29.81-.31,1.22-.18,3.46-.5,6.92-.36,10.38a56.73,56.73,0,0,1-.56,5.82c-.11,1.68-.08,3.37-.14,5-.13,3.89,0,7.79-.46,11.68-.4,3-.48,6.07-.75,9.1-.09,1-.23,2-.22,2.91,0,2.27-.5,4.49-.3,6.77.1,1.24-.16,2.56-.08,3.76s-.17,2.35,0,3.43c.41,3,0,5.93,0,8.88,0,4.42.6,8.82.44,13.26-.07,2.11.52,4.38,0,6.37-.77,2.89-.31,5.74-.54,8.6a5.2,5.2,0,0,0,.16,1.88c.45,1.52-.45,2.9-.56,4.39-.09,1.23-.25,2.5-.3,3.75s-.66,2-1.84,2c-2.07,0-2.3-.19-2.47-1.8a35.82,35.82,0,0,1-.11-5.18,5.87,5.87,0,0,0-.42-2.52,5.34,5.34,0,0,1-.32-3.51,14.06,14.06,0,0,0-.06-4.29,22.14,22.14,0,0,0-.59-5.08,14.78,14.78,0,0,1-.06-3.66,44.9,44.9,0,0,0-.21-5.31,48.83,48.83,0,0,1-.3-6.62A53.29,53.29,0,0,0,58,150c-.17-1.55,0-3.15-.17-4.71-.24-2.16.48-4.25.29-6.41-.15-1.7,0-3.42,0-5.14,0-1.18-.49-2.28-.3-3.53a11.55,11.55,0,0,0,.23-3.49,37,37,0,0,0-.7-5.25c-.2-.69.08-1.45-.39-2.07-.08-.5-.68-.89-.32-1.49a17.38,17.38,0,0,0,.09-5.14c-.56-2.54.41-5,.19-7.52-.42-5,.5-9.87.45-14.81,0-1.74.73-3.38.79-5.14.07-2.53.28-5.07.48-7.6a18.61,18.61,0,0,1,1.27-6.46A6,6,0,0,0,60,68.13a38.12,38.12,0,0,1,.3-5.46c.08-1.73.18-3.46.11-5.19a18.16,18.16,0,0,1,.92-5.68,13.9,13.9,0,0,0,.46-4.48c-.1-2.12.06-4.24.14-6.35.09-2.46-.72-4.72-1-7.2a65.1,65.1,0,0,1-5.48,9.77A80.08,80.08,0,0,1,50,51c-1.47,1.84-3.31,3.38-4.9,5.12a7.86,7.86,0,0,1-2.7,2.39c-.42.18-.66.83-1.22,1S40,60,40.8,60.71c.18.16.24.29,0,.48s-.66.14-1,0c-.55-.9-1.4-.28-2.11-.42,0,.22.33.34.17.6h0c-.44.13-.23.78-.7.9l-.24.29c.12.39-.24.61-.41.49-.7-.52-1.28.12-1.92.11-.31-.16-.59-.47-1-.2-.17.27-.8,0-.71.57a.76.76,0,0,1-.35.19c-.21.48.26.81.26,1.25-.39.49-.66.2-.84-.18-1.05-2.28-2.67-4.24-3.68-6.54-.17-.24-.13-.42.14-.54.52.1.56.68.92.93a1.43,1.43,0,0,1,.17.43.7.7,0,0,0,.1.16c.13-.09,0-.14,0-.22a1.85,1.85,0,0,0-.52-.74c-.59-.91-1.09-1.89-1.64-2.83a4.35,4.35,0,0,0-1.23-2.07c.42.63.68,1.34,1.08,2,.23.64,1,1,.88,1.83-.1.16-.22.28-.43.16-1.28-1.62-2.06-3.55-3.22-5.25a1.7,1.7,0,0,0-.77-.63c-.67-.3-1-.25-1,.64.07,1.87.06,3.75,0,5.62-.05,2.66-.27,5.33-.2,8,.08,2.92-.81,5.73-.72,8.65.07,1.94.28,3.88.17,5.83-.2,3.32.22,6.74-.78,9.91-.64,2,.17,4-.38,5.86-.18.63.29,1.2.25,1.86-.05.92-.56,1.74-.66,2.57a35,35,0,0,0,0,5.51,2.24,2.24,0,0,1-.2,1.33,2.35,2.35,0,0,0,.1,2.33c.06.09.2.23.19.25-1.07,1.16.73,2.67-.47,3.88-.24.24,0,1,.1,1.52.13.66.52,1.3-.24,1.89-.26.2.08.57.15.86.19.79-.22,1.63.2,2.41,0,0,0,.1,0,.1-1.14.36-.61,1.51-.73,2.13a35.71,35.71,0,0,0-.57,5.17,11.63,11.63,0,0,0,.58,4.87.3.3,0,0,1-.16.4c-.24.27-.11.61-.1.9a3.41,3.41,0,0,1-1.72,3c-1.22.5-2.49.06-3.73.11a.82.82,0,0,1-.82-1.09c.06-.31.17-.71-.14-1a22.06,22.06,0,0,1-.69-5,2.2,2.2,0,0,0-.49-1.43,5.47,5.47,0,0,1-1.23-4,14,14,0,0,0-.42-4.8,12.2,12.2,0,0,1-.18-2.82c0-2-.44-4-.11-6a26.75,26.75,0,0,0-.08-3.57c0-1.36.08-2.72.1-4.08a50.93,50.93,0,0,0-.73-7.77c-.14-1,.26-2-.2-3-.27-.46.26-.77.23-1.19" transform="translate(-8.43 -6.95)"/><path d="M242.68,51.05A5.7,5.7,0,0,1,242.5,48c.12-.22,0-.51.14-.69,1.17-1.52.68-3.15.42-4.79a23.42,23.42,0,0,1,.11-5.55c0-2.84.1-5.67,0-8.5a5.32,5.32,0,0,1,.73-3.58,2.65,2.65,0,0,1,1.62-1.05,1.44,1.44,0,0,1,1.83,1.05c.69,1.72.64,3.57,1.14,5.31a3,3,0,0,0,.5,1.27,2.45,2.45,0,0,1,.47,1.66q0,3.73-.42,7.45a3.37,3.37,0,0,0,.38,2.49c.57.76.27,1.79.21,2.67a14.23,14.23,0,0,0,.67,3.69,7,7,0,0,1,.16,3.24c-.18.73.42,1.38.4,2.09-.1,3.23.25,6.45.26,9.68,0,3.7-.28,7.39-.33,11.08,0,2.89-.42,5.76-.53,8.65-.11,2.66-.08,5.32-.1,8,0,2.28,0,4.56,0,6.83,0,.68.15,1.46-.79,1.81-.29.1-.26.61-.22,1,.45,3.34.17,6.71.34,10,0,.63.39,1.21.17,2,1.32-.43,2.56-.74,3.71-1.25A22.36,22.36,0,0,1,259.7,111c2.53-.31,4.89-1.33,7.36-1.85a79.07,79.07,0,0,0,9.83-2.74,16.12,16.12,0,0,0,3.77-1.91,8.48,8.48,0,0,1,5-1.37,16,16,0,0,0,3.94-.68c1.83-.46,3.71-.69,5.58-1a68.25,68.25,0,0,1,11-1,86.5,86.5,0,0,0,9.16-1.15c1.6-.2,3.22-.24,4.81-.46,1.32-.17,2.64,0,3.95-.2a2.09,2.09,0,0,1,2.56,1.17c.37.89-.32,2.9-1.23,3.16a7.48,7.48,0,0,1-2.87.51c-1.06-.18-1.91.26-2.86.28a5.83,5.83,0,0,0-2.61.49c-.52.26-1.16-.34-1.88-.39a40.22,40.22,0,0,0-7.37.14c-1.58.19-3.29-.16-4.84.74-.33.19-1.32-.14-2-.16a22.85,22.85,0,0,0-5.89.73c-1.89.44-3.85.49-5.72,1.12a48.3,48.3,0,0,0-5.85,2.42c-2.45,1.2-4.88,2.45-7.34,3.61-2.18,1-4.41,1.94-6.6,2.94a6.18,6.18,0,0,1-1.79.49,25.12,25.12,0,0,0-5.45,1.35c-1.38.53-2.9.69-4.11,1.65-.18.15-.47.19-.61.36-1.44,1.79-3.71,2.13-5.57,3.18-.16.09-.36,0-.52.2-1.5,1.65-3.39,1.34-5.2.87a9.59,9.59,0,0,1-4.93-2.65,3.55,3.55,0,0,1-1.05-2.53c.05-3.12,0-6.23,0-9.35a4.36,4.36,0,0,0-.43-2.43,1,1,0,0,1-.06-.69c.67-3,.1-5.94.19-8.91a1,1,0,0,1,0-.57,46.5,46.5,0,0,0,.22-6.88,57.18,57.18,0,0,1,.47-10.79c.45-2.73.78-5.48,1.15-8.22.14-1,.17-2.12.3-3.18.39-3.22.26-6.46.36-9.7,0-1.76,0-3.53.12-5.3a2.72,2.72,0,0,1,.1-1.17" transform="translate(-8.43 -6.95)"/><path class="cls-4" d="M242.21,67.37c-.43,4.15-.88,8.31-1.46,12.45a30.18,30.18,0,0,0-.27,6.39,58.32,58.32,0,0,1,0,7.36c-.05.93.43,2-.34,2.8-.25-.09-.16-.36-.25-.54.12-.55-.36-1-.19-1.58a1.11,1.11,0,0,0-.07-.76c-.12-3.15.28-6.29.3-9.44a23.3,23.3,0,0,1,.52-6c.7-2.49.74-5,1.23-7.51a22.78,22.78,0,0,1,.37-3.18c.06-.11.13-.11.2,0" transform="translate(-8.43 -6.95)"/><path class="cls-5" d="M12.94,135c.54.44.16,1.05.27,1.45a11.52,11.52,0,0,0,4.31.44c.27.57,0,.78-.54.86-.1,0-.16-.06-.14-.13s0-.23,0-.07a4,4,0,0,0,.2,1.33c.08.45.28.91,0,1.37h0c-.6.15-.52-.63-1-.7-.49.5-1,.72-1.43-.05-.21-.33-.46-1-.77,0-.21.62-.68.43-1,0a1.66,1.66,0,0,1-.34-1.92,4.11,4.11,0,0,0,.37-2.62" transform="translate(-8.43 -6.95)"/><path class="cls-6" d="M185.63,92.06c.45,2.13.39,2.4-1.2,4.73-.4-.28-.13-1-.68-1.13,0-1.68,0-3.36,0-5,.18-.42.37-.26.63-.07.55.4.53,1.25,1.24,1.51" transform="translate(-8.43 -6.95)"/><path class="cls-7" d="M243.17,36.93c-.26,2.91.32,5.78.57,8.66a1.1,1.1,0,0,1-.4,1.11A3.67,3.67,0,0,0,242.5,48a59.83,59.83,0,0,1,.67-11" transform="translate(-8.43 -6.95)"/><path class="cls-8" d="M185.63,92.06c-.49.2-1,.55-.9-.48,0-.3-.24-1-1-1a3.36,3.36,0,0,1,.87-2.84c.52-.55.4-1.27.46-1.93.58,1.06.33,2.26.51,3.39a18.93,18.93,0,0,1,0,2.82" transform="translate(-8.43 -6.95)"/><path class="cls-9" d="M14.14,9.85" transform="translate(-8.43 -6.95)"/><path class="cls-10" d="M242.21,67.37H242a18.57,18.57,0,0,1,.24-3.79c.08-1.46-.36-2.91-.23-4.36.23-2.64.26-5.28.46-7.92,0-.09.13-.17.2-.25-.11,4.37.14,8.75-.23,13.12a31.1,31.1,0,0,0-.24,3.2" transform="translate(-8.43 -6.95)"/><path class="cls-11" d="M191.34,33.28a14.89,14.89,0,0,1-1,4.37c-.32,1.25-.78,2.47-1,3.76a10.65,10.65,0,0,1-1.08,2.72c-.06-1.32.79-2.41.93-3.69a8.42,8.42,0,0,0,.15-2.52c-.08-.41-.45-1.68.88-1.93.25-.05.28-1,.59-1.52a7.82,7.82,0,0,0,.49-1.19" transform="translate(-8.43 -6.95)"/><path class="cls-12" d="M102.66,82.71a5.88,5.88,0,0,1,4-.34c.77.13,1.75-.22,2.28.82a2,2,0,0,1,.4.93c0,1.86,0,3.72,0,5.59a14.32,14.32,0,0,1-.21-4.28c.13-1.84-.48-2.59-2.56-2.53a12.83,12.83,0,0,1-3.91-.19" transform="translate(-8.43 -6.95)"/><path class="cls-13" d="M16.83,137.59a.65.65,0,0,0,.69-.73A5.69,5.69,0,0,0,19.45,133a12.42,12.42,0,0,1-.92,5.22c0,.59-.36.79-.86.87s-.33-.84-.82-1c-.15-.17-.22-.35,0-.54" transform="translate(-8.43 -6.95)"/><path class="cls-8" d="M169.24,104.07c2,.19,2.7,1.79,3.65,3.15h-.08l-.07,0c-1.26-.25-1.88-1.49-3-1.91l-.48-1.21" transform="translate(-8.43 -6.95)"/><path class="cls-14" d="M81.08,75.8a.9.9,0,0,1-.24,1.39c-.23.46-.27,1.59-1,.24-.11-.21-.43-.1-.66-.11-.41,0-.88.71-1.24-.08l3.11-1.44" transform="translate(-8.43 -6.95)"/><path class="cls-15" d="M32.88,63.54c-.27-.75.37-.57.71-.7a2.22,2.22,0,0,1,.72.94L32.84,65a1.37,1.37,0,0,1-.62-1.46s.07,0,.1,0,.06,0,.08.07c.18.29.33.26.48,0" transform="translate(-8.43 -6.95)"/><path class="cls-16" d="M17.55,139.05c.33-.26.79-.36,1-.79.06.77.2,1.58-1,1.53-.15,0-.31.28-.46.43a8.24,8.24,0,0,1-.47-2.78s0-.05.06-.07.13.15.19.22a.49.49,0,0,0,.21.49c.39.21-.1.88.51,1" transform="translate(-8.43 -6.95)"/><path class="cls-17" d="M79.16,77.2c.3,0,.7-.13.86.18.58,1.15.53-.24.82-.19a3.67,3.67,0,0,0,1.42,2.2,3.69,3.69,0,0,1-2.36-1.64c-.15-.51-.49-.24-.74-.31-.06-.06-.08-.11-.06-.16s0-.08.06-.08" transform="translate(-8.43 -6.95)"/><path class="cls-18" d="M37.91,61.37c-.09-.5-.61-.2-.85-.42.94-.79,2.49-.65,2.79.24-.71-.63-1.32-.11-1.94.18" transform="translate(-8.43 -6.95)"/><path class="cls-18" d="M34.56,63.06c.35.19.42-1.08.91-.18l.16-.27c.25-.52.3-.55.61,0s.48.45.72,0c.44.64-.19.85-.45.68-.57-.37-1,.15-1.47,0-.24.12-.51.26-.68-.07-.08-.13.08-.16.2-.17" transform="translate(-8.43 -6.95)"/><path class="cls-19" d="M169.72,105.28c1.27.21,2,1.28,3,1.91-.61.26-.9-.24-1.27-.53-.59-.45-1.17-.92-1.75-1.38" transform="translate(-8.43 -6.95)"/><path class="cls-20" d="M228.1,119.7c.07-1,.14-1.94.2-2.92a11.22,11.22,0,0,1,.47,2.36c.16.56-.38.45-.67.56" transform="translate(-8.43 -6.95)"/><path class="cls-17" d="M82.24,79.39a6.49,6.49,0,0,1,3.87,1.12,37.91,37.91,0,0,1-3.87-1.12" transform="translate(-8.43 -6.95)"/><path class="cls-21" d="M34.56,63.06c0,.47.34.12.48.24l-.72.48c-.55-.08-.64-.51-.73-.94.52-.77.79-.51,1,.22" transform="translate(-8.43 -6.95)"/><path class="cls-22" d="M35.48,45.08c-.43-.39-.44-1-.68-1.45.66.28,1.55.46.68,1.45" transform="translate(-8.43 -6.95)"/><path class="cls-23" d="M79.16,77.2v.24a2.55,2.55,0,0,1-1.24.47c-.26,0-.46,0-.44-.38s.24-.34.49-.29c.41.44.79-.08,1.19,0" transform="translate(-8.43 -6.95)"/><path class="cls-24" d="M191.82,78.42c.25-1.37,1.3-.56,2-.72-.75,0-1.27.65-2,.72" transform="translate(-8.43 -6.95)"/><path class="cls-25" d="M9.13,84.38c0,.4,0,.8,0,1.2-.24,0-.62.24-.7-.18s.34-.76.69-1" transform="translate(-8.43 -6.95)"/><path class="cls-26" d="M9.14,91.34c.21.45-.08.81-.23,1.19-.68-.54.11-.8.23-1.19" transform="translate(-8.43 -6.95)"/><path class="cls-27" d="M56.59,117.93c-.38.6.8.87.32,1.49-.54-.4-.83-.86-.32-1.49" transform="translate(-8.43 -6.95)"/><path class="cls-28" d="M133.61,74.06c-.41.5-.86.79-1.46.29.57.33.9-.56,1.46-.29" transform="translate(-8.43 -6.95)"/><path class="cls-29" d="M27.75,57.34l.33-.27c.51,0,.71.23.47.72-.19.1-.21.29-.23.47-.35-.21-.11-.77-.57-.92" transform="translate(-8.43 -6.95)"/><path class="cls-30" d="M10.31,70.93a1,1,0,0,1-.21,1c-.51-.45-.13-.72.21-1" transform="translate(-8.43 -6.95)"/><path class="cls-16" d="M16.08,139.52c.52,0,.54.61,1,.7-.84.47-.58-.54-1-.7" transform="translate(-8.43 -6.95)"/><path class="cls-31" d="M97.61,44.59c-.15.4.45.81,0,1.21-.13-.41-.52-.81,0-1.21" transform="translate(-8.43 -6.95)"/><path class="cls-31" d="M98.1,44.13l-.49.47c.08-.31-.17-.77.28-.89.28-.07.12.28.21.42" transform="translate(-8.43 -6.95)"/><path class="cls-18" d="M37.2,62.28c.28-.27.1-.89.7-.9-.48.1.17,1.1-.7.9" transform="translate(-8.43 -6.95)"/><path class="cls-32" d="M91.18,71.44c.13.31.64.53.24,1a1,1,0,0,1-.24-1" transform="translate(-8.43 -6.95)"/><path class="cls-33" d="M178.23,76.44c.1-.11.25-.34.27-.32.33.18.11.52.21.78-.34,0-.41-.21-.48-.46" transform="translate(-8.43 -6.95)"/><path class="cls-34" d="M161.63,41.74a7.24,7.24,0,0,0-3.76-1.52c-.38,0-.3-.42-.51-.58a.18.18,0,0,1,0-.31H160c1.32.28,2.06,1.37,3,2.17.14,1-.34.79-.89.46a3.81,3.81,0,0,1-.45-.23" transform="translate(-8.43 -6.95)"/><path class="cls-35" d="M162.85,41.49c-.64-.17-1.43-.17-1.26-1.19-.85.19-1.11-.6-1.62-1,.85.06,1.71.08,2.57.18,1.37.16,1.74.6,1.74,2,0,.4,0,.79,0,1.19-.47.06-.47-.34-.5-.61a2.52,2.52,0,0,0-.68-1.29.89.89,0,0,1-.25.7" transform="translate(-8.43 -6.95)"/><path class="cls-36" d="M196.88,47a8.79,8.79,0,0,1-.59,3.28c-.4.93,0,2.15-.32,3.24a3.84,3.84,0,0,1-.52,1.39c-.7-.28-.3-.77-.23-1.2A67.74,67.74,0,0,1,196.88,47" transform="translate(-8.43 -6.95)"/><path class="cls-37" d="M199.77,70.05c.14-.08.35-.25.41-.21,2,1.5,4.38.68,6.55,1.13-1.63.55-3.3.15-4.94.11-.82,0-1.66-.06-2.49-.12-.39-.59.44-.54.47-.91" transform="translate(-8.43 -6.95)"/><path class="cls-38" d="M161.63,41.74h.49c.44.55.85,1.23,1.64.41.25.46.24.93.51,1.27-.3,1,.45,2.12-.27,3.09-.2-.45.29-1.11-.55-1.41-.32-.12.18-.48.31-.74a.65.65,0,0,0,0-.56c-.24-.23-.23.16-.37.23-.37.19-.53,0-.59-.32-.16-.8-.91-1.24-1.18-2" transform="translate(-8.43 -6.95)"/><path class="cls-39" d="M164.27,43.41c-.45-.16-.42-.61-.55-1-.29.16-.1.79-.47.66a1.82,1.82,0,0,1-1.13-1.36c.21-.19.8.81.73-.24.07-.27-.19-.7.25-.77a.81.81,0,0,1,.83.53c.24.46-.1,1,.35,1.44Z" transform="translate(-8.43 -6.95)"/><path class="cls-40" d="M157.33,39.33l0,.31c-.06.13-.12.38-.19.38-1.58.12-3.15.21-4.72.3,1.63-.32,3.16-1.13,4.88-1" transform="translate(-8.43 -6.95)"/><path class="cls-41" d="M195.22,53.71c.06.4-.16.86.23,1.2l-.72,2.87a5.6,5.6,0,0,1,.49-4.07" transform="translate(-8.43 -6.95)"/><path class="cls-42" d="M199.77,70.05c.62.71-.56.47-.47.91l-1.44-.24a.43.43,0,0,1,0-.65c.64-.6,1.28,0,1.92,0" transform="translate(-8.43 -6.95)"/><path class="cls-43" d="M197.85,70.07c0,.21,0,.43,0,.65-.8-.22-1.71-.07-2.4-.67l2.39,0" transform="translate(-8.43 -6.95)"/><path class="cls-44" d="M148.94,41.48c-.85.64-.89,1.91-1.91,2.41a3.66,3.66,0,0,1,1.91-2.41" transform="translate(-8.43 -6.95)"/><path class="cls-45" d="M199.55,47c-.05.19,0,.56-.37.29A3.71,3.71,0,0,1,197.86,46a2.87,2.87,0,0,1,1.69,1" transform="translate(-8.43 -6.95)"/><path class="cls-46" d="M215.34,70.28c-.4-.43-1.48-.63-.5-1.51a4.27,4.27,0,0,1,.5,1.51" transform="translate(-8.43 -6.95)"/><path class="cls-47" d="M210.55,60.44a2.08,2.08,0,0,1-.74-1.44,1.85,1.85,0,0,1,.74,1.44" transform="translate(-8.43 -6.95)"/><path class="cls-48" d="M27.11,55.39c-.77-.73-.86-1.79-1.33-2.67.71.83,1.94,1.3,1.82,2.67-.16.15-.32,0-.49,0" transform="translate(-8.43 -6.95)"/><path class="cls-49" d="M27.11,55.39c.17-.27.33,0,.49,0a16.88,16.88,0,0,1,1.69,2.87.35.35,0,0,1,0,.5c-.43-.19-.51-.63-.73-1a.68.68,0,0,0-.47-.72c-.16-.65-.87-1-1-1.68" transform="translate(-8.43 -6.95)"/><path class="cls-29" d="M29.76,59c.32.19.7.52.34.78s-.61-.25-.81-.55c.13-.13.2-.39.47-.23" transform="translate(-8.43 -6.95)"/><path class="cls-50" d="M29.76,59l-.47.23c0-.15,0-.3,0-.45v-.5a.73.73,0,0,1,.48.72" transform="translate(-8.43 -6.95)"/><path class="cls-51" d="M14.91,13.44c.14-.09.22-.19.31-.19s.14.1.21.15-.14.18-.23.2-.16-.08-.29-.16" transform="translate(-8.43 -6.95)"/><path class="cls-52" d="M17.45,12c-.09-.54-.56-.69-.22-1s.28.1.3.27,0,.23-.08.69" transform="translate(-8.43 -6.95)"/><path class="cls-53" d="M17.55,139.05c-.06.26-.2.51-.37.13a3.57,3.57,0,0,1-.14-1.1c.33-.32.5-.17.45.21a1,1,0,0,0,.06.76" transform="translate(-8.43 -6.95)"/><path class="cls-54" d="M17.94,136.89v1.71a2.37,2.37,0,0,1,0-1.71" transform="translate(-8.43 -6.95)"/></g></g><polygon points="89.17 37.64 89.18 37.64 89.18 37.64 89.17 37.64"/><path d="M231.08,147.91c-.68-3.46-1.7-6.85-2.16-10.36-.17-1.32-.26-2.66-.35-4-.15-2.2-.35-4.41-.38-6.61,0-2.42.1-4.83-.09-7.24a4.5,4.5,0,0,0,.2-2.92c-.5-.5,0-1,0-1.49,0-1.44-.19-2.85-.28-4.28-.11-1.9-.06-3.82-.3-5.71-.22-1.59-.13-3.18-.21-4.77q-.33-6.66-1.18-13.28a18.58,18.58,0,0,0-1.21-5.54c-.82-1.79-1.48-3.65-2.24-5.46-.39-.91,0-1.27.84-1.44a25,25,0,0,0,2.86-.75,1.58,1.58,0,0,0,1.16-1.64,1.61,1.61,0,0,0-1.44-1.51,10.06,10.06,0,0,0-2.26-.13c-2.68,0-2.6,0-3.57-2.57-1.66-4.34-3.18-8.74-5.07-13-.57-1.29-1.61-2.26-2-3.7C212.55,48,211,45,207.91,42.78a11.7,11.7,0,0,1-4.23-5.62A6,6,0,0,0,202,34.59c-1.5-1.27-3.3-2.24-4.3-4.06a1.58,1.58,0,0,0-1.46-.68,2.35,2.35,0,0,1-1.86-1.15,1.28,1.28,0,0,0-2.2.06,4.8,4.8,0,0,0-.86,4.52c-.24.67-.31,1.37-.57,2-1.11,2.85-1.36,6-2.47,8.81-.6,1.34-.5,2.84-1,4.22a8.51,8.51,0,0,0-.53,2.89c0,1.94.19,3.88-.64,5.74a8,8,0,0,0-.3,2.1c-.34,2.68-.7,5.35-.81,8,0,.58-.16,1.14-.86,1.23s-1.57.11-2.35.22c-2,.28-4.38-.14-5.06,2.67,0,.1-.17.16-.25.25a2.65,2.65,0,0,0,1.2,4.48.73.73,0,0,1,.49.46c.28,0,.28.35.48.46,1.18.66,2.44.29,3.66.29,2.55,0,2.51,0,2.56,2.52a36,36,0,0,0,.16,6.14c.29.15.16.42.14.63-.19,1.76.13,3.51.07,5.28.12.81.14,1.64.25,2.45s-.46,1.14-.83,1.62-.59-.43-1-.17a23.88,23.88,0,0,0,0,3.59c.13.87.75,1.69,0,2.54.83.56.28,1.49.59,2.22s-.35,1.18-.79,1.44-.58-.45-.71-.76c-.88-2.2-3-3.11-4.75-4.27a11.76,11.76,0,0,1-3.82-4.37c-.21-.39-.5-1-1.1-1.07a1.81,1.81,0,0,1-1.39-1.12,3.05,3.05,0,0,0-1-1.1,10.65,10.65,0,0,1-3.56-3.16c-.79-1.33-2.27-2.1-3.15-3.4a5.16,5.16,0,0,0-2.54-2.46,4.11,4.11,0,0,1-1.75-1.12,8.24,8.24,0,0,0-1.23-1.53c-2.13-1.5-3.1-3.93-4.78-5.8a29.39,29.39,0,0,1-2.36-2.61c-.52-.73-.57-.61.27-1.06s1.84,0,2.66-.79a8.79,8.79,0,0,1,2.24-1.9c2.53-1.21,5-2.46,7.53-3.74a8.21,8.21,0,0,0,2.9-2.43,50.54,50.54,0,0,0,4.43-7.46c.62-1.22,1.61-2.29,1.67-3.78.11-2.77.52-5.51.12-8.3-.32-2.17-.4-4.34-2.35-5.85-2.13-1.64-4.16-3.41-6.29-5-1-.8-2.22-1.7-3.6-1.57-1.65.15-3.23-.33-4.89-.19s-3.25-.41-4.76,0c-3.19.88-6.54.44-9.72,1.44-1.21.38-2.24.85-2.5,2.17-.37,1.94-.78,3.88-1.17,5.82a32.54,32.54,0,0,0-.48,8.42c.14,2.15-.49,4.25-.69,6.38-.53,5.38-1,10.76-2,16.07a6.14,6.14,0,0,1-1.12,3.18c-.48.14-.88.67-1.46.29-1.69-1.26-3.77-1.24-5.69-1.7-2.53-.6-5.07.12-7.61,0-1.06,0-1.37-.25-1.36-1.35,0-1.87.13-3.82-.72-5.57a6.85,6.85,0,0,1-.66-2.84,40.49,40.49,0,0,0-2.76-13.23c-.87-2.26-2.13-4.39-2.86-6.65a53.39,53.39,0,0,0-3.35-7.89c-.67-1.31-1.38-1.6-3.21-1.32A2.41,2.41,0,0,0,102,36c-.32,1.87-1.28,3.49-1.76,5.29-.12.45-.27,1-.94,1.12a.71.71,0,0,0-.44.87c.28.78-.27.8-.79.86-.46-.16-.27.37-.49.46-.34.4.19.81,0,1.21-.63.48-1.15,1-.13,1.59a.52.52,0,0,1,.13.66,23.62,23.62,0,0,0-.9,3.19c-.46,1.69-1.83,3.07-1.64,5,0,.38.5.58.22,1.12a6.43,6.43,0,0,0-.75,2.69c-.05,1.6-1.41,2.77-1.22,4.45a8,8,0,0,1-1.85,5.83,1.18,1.18,0,0,0-.29,1.11c0,.33.33.6.24,1-.48.83-.47,2-1.94,2a21.91,21.91,0,0,0-8.4,1.38,7.59,7.59,0,0,1-.43,1.5,2.29,2.29,0,0,0,1.6,2.09,14.75,14.75,0,0,1,3.86,1.12c.67,0,1.06.18,1,1,0,.4-.26,1,.54,1,.33,0,.13.45,0,.71-.8,2.65-1.94,5.18-2.6,7.9-.93,3.85-2.43,7.55-3.41,11.39-.78,3.08-2.52,5.82-2.93,9a4.49,4.49,0,0,0,.69,2.41c.22.59.8.16,1.14.38s.75.09.75.6c0,.22.1.44.35.31A4.28,4.28,0,0,1,85.2,115c.65.2,1-.73,1.74-.68s1-.5,1.08-1.14c.48-2.78,1-5.55,1.5-8.33.22-1.25.46-2.5.69-3.76a27.28,27.28,0,0,0,.68-3.87c0-1.19.91-2,1-3.19a36.57,36.57,0,0,1,1.88-8c.37-1,1-1.94,1.4-3,.1-.23.23-.44.51-.42,1,.06,1.88-.34,2.88-.21,1.34.19,2.7.17,4.06.23a22.45,22.45,0,0,1,4.49,0c1.64.21,2.09.61,2.1,2.31a37.19,37.19,0,0,0,.09,4.72c-.3,1.05.15,2.16-.06,3.14-.48,2.23-.21,4.46-.3,6.68-.12,2.94,0,5.89-.1,8.83-.08,2.12,0,4.23.08,6.34s.53,4.08.57,6.1c.11,4.44,0,8.89,0,13.34,0,2.39,0,4.78,0,7.18,0,.88.3,1.7,1.42,1.66,1.47,0,1.92-.47,1.94-1.6,0-2,.19-4,.09-6,0-.37.07-1.13.82-.49.23-.41.67.45,1.18-.37a4.28,4.28,0,0,0,.42-1.93,14.49,14.49,0,0,0,.17-4.27c-.14-1.26.06-2.59,0-3.88,0-.54.4-.52.67-.69a5.32,5.32,0,0,0,2.49-3.83c.22-1.3-.1-2.64.4-3.88a1.43,1.43,0,0,0,0-.87c-.18-1.08-1.44-1.76-1-3.08a10.09,10.09,0,0,0,.41-5.86c-.9-3.4-1-6.86-1.29-10.3-.35-3.75.24-7.56-.28-11.33-.09-.64.11-.92.83-.92,1.18,0,2.37.33,3.5.27,3.45-.18,6.9-.16,10.35-.21.62,0,.65.13.69.69.11,1.72-.59,3.32-.48,5.07.18,3-.61,5.85-.63,8.84,0,2.29-.48,4.61-.61,6.94a68.79,68.79,0,0,0-.31,9.63,1.69,1.69,0,0,0,1.3,1.75,1.64,1.64,0,0,1,1.36,1.19,1.44,1.44,0,0,0,1.6,1,1.55,1.55,0,0,0,1.48-1.23c.3-2.08,1.05-4.11,1.18-6.16.18-2.91.84-5.77.8-8.68,0-2.1.69-4.08.73-6.15.09-5,.47-9.86,2.81-14.42.45-.87.68-1.08,1.4-.42a5.22,5.22,0,0,1,.66.67,6.65,6.65,0,0,0,2.34,2.4,10.49,10.49,0,0,1,3.59,3.09,13.79,13.79,0,0,0,2.4,2.31,37.49,37.49,0,0,1,4.48,4.06c.79.85,1.19,2.1,2.45,2.47a9.65,9.65,0,0,1,3.84,2.69c.95.9,2.08,1.61,3.09,2.46s1.9,2,3.34,2.18c1.59.62,2.41,2.13,3.65,3.15a10.31,10.31,0,0,0,2.87,2.45,60.43,60.43,0,0,1,11,6.36c.31.22.64.31.71-.12s.42-.46.66-.57a2.13,2.13,0,0,0,1.34-2.14c-.14-3.25.2-6.49.22-9.73a1.49,1.49,0,0,1,0-.6c.88-1.88.53-3.94.73-5.9a83.94,83.94,0,0,0,0-9.78,22.21,22.21,0,0,1,1.35-8.77c.55-.55.55-.55,1.89-.67l.1,0c5.31,0,10.63,0,15.93.2,2.53.1,4.86-.68,7.28-1.05,1-.16,1.21.22,1.38,1s.43,1.88.6,2.8c.21,1.18.78,2.23.9,3.43s.5,2.57.6,3.87c.22,2.83,1.31,5.5,1.45,8.35a7.18,7.18,0,0,0,0,2.07c.65,1.88.34,3.9.91,5.84a18.46,18.46,0,0,1,.53,4.22,61,61,0,0,0,.66,8,25.72,25.72,0,0,1,.15,6.08,67.33,67.33,0,0,0,1.73,18.18,76.42,76.42,0,0,1,1.44,7.8c.16,1.62,1.21,2.68,2.33,2.51S231.42,149.6,231.08,147.91Zm-122.18-74a31.8,31.8,0,0,1-4.14.33,53.27,53.27,0,0,0-6.19,0c-.69,0-.89-.14-.75-.86.57-3,1.35-5.92,2-8.88.72-3.29,2.16-6.35,2.68-9.68a3.27,3.27,0,0,0,.09-.82c-.22-2.39.72-4.47,1.77-6.78a43.53,43.53,0,0,1,2.89,6,37.65,37.65,0,0,1,1.55,8.35c.25,3.74,0,7.54.84,11.23C109.8,73.58,109.57,73.89,108.9,73.92Zm37.18-9.24a7.35,7.35,0,0,0-1.17.54c-1,.43-1.54.07-1.53-1a34.68,34.68,0,0,1,1-5.73,16.19,16.19,0,0,0,.44-3.26,34.17,34.17,0,0,1,.53-6.93A9.86,9.86,0,0,1,147,43.83c.75-.71.89-1.9,1.91-2.4,1.18-.37,2.17-1.28,3.51-1.16a4.24,4.24,0,0,0,1.9-.36c.94-.24,1.92-.16,2.87-.36,1.55.57,3.27.73,4.53,2,.77.67,1,1.81,2.09,2.27.36.15.08,1.29.25,2a.86.86,0,0,1-.09.69c-.6.74-.1,1.61-.26,2.43a11.42,11.42,0,0,1-3.58,6.6c-1.71,1.53-3.26,3.22-4.95,4.77A20.24,20.24,0,0,1,146.08,64.68Zm68.46,6c-2.62.1-5.25.18-7.87.27-2.1.06-4.2.22-6.22-.55a1.39,1.39,0,0,0-.69-.13,14.51,14.51,0,0,0-2-.06A6.37,6.37,0,0,1,195.4,70,1.12,1.12,0,0,1,194,68.48c.57-1.78-.18-3.48,0-5.24s.92-3.62.7-5.51a8.74,8.74,0,0,1,.49-3,9.31,9.31,0,0,0,.74-3.68,1.47,1.47,0,0,1,.13-.81,8.43,8.43,0,0,0,.8-3.3c.15-.49.16-1.14,1-1,.58.3.9,1.05,1.69,1a36.81,36.81,0,0,1,3.87,4,26.73,26.73,0,0,0,2.95,2.7A8.39,8.39,0,0,1,208.58,57a16.54,16.54,0,0,0,1.18,2,11.39,11.39,0,0,0,.74,1.43l4.29,8.33c-.31.66.25,1,.49,1.51C215.32,70.87,214.84,70.63,214.54,70.64Z" transform="translate(-8.43 -6.95)"/><path d="M82.26,79.39h0Z" transform="translate(-8.43 -6.95)"/></svg>