<?xml version="1.0" encoding="utf-8"?>
<!-- Generator: Adobe Illustrator 24.2.0, SVG Export Plug-In . SVG Version: 6.00 Build 0)  -->
<svg version="1.1" id="Calque_1" xmlns="http://www.w3.org/2000/svg" xmlns:xlink="http://www.w3.org/1999/xlink" x="0px" y="0px"
	 viewBox="0 0 612 792" style="enable-background:new 0 0 612 792;" xml:space="preserve">
<style type="text/css">
	.st0{clip-path:url(#SVGID_2_);}
	.st1{clip-path:url(#SVGID_4_);}
	.st2{clip-path:url(#SVGID_6_);}
	.st3{clip-path:url(#SVGID_6_);fill:#121111;}
	.st4{clip-path:url(#SVGID_6_);fill:#171415;}
	.st5{clip-path:url(#SVGID_6_);fill:#060505;}
	.st6{clip-path:url(#SVGID_6_);fill:#161515;}
	.st7{clip-path:url(#SVGID_6_);fill:#131111;}
	.st8{clip-path:url(#SVGID_6_);fill:#F6F6F6;}
	.st9{clip-path:url(#SVGID_6_);fill:#1E1C1E;}
	.st10{clip-path:url(#SVGID_6_);fill:#332F33;}
	.st11{clip-path:url(#SVGID_6_);fill:#3D393B;}
	.st12{clip-path:url(#SVGID_6_);fill:#13151A;}
	.st13{clip-path:url(#SVGID_6_);fill:#161414;}
	.st14{clip-path:url(#SVGID_6_);fill:#29282B;}
	.st15{clip-path:url(#SVGID_6_);fill:#3A3237;}
	.st16{clip-path:url(#SVGID_6_);fill:#272326;}
	.st17{clip-path:url(#SVGID_6_);fill:#09090A;}
	.st18{clip-path:url(#SVGID_6_);fill:#2B2B2B;}
	.st19{clip-path:url(#SVGID_6_);fill:#151315;}
	.st20{clip-path:url(#SVGID_6_);fill:#0F0F11;}
	.st21{clip-path:url(#SVGID_6_);fill:#151B22;}
	.st22{clip-path:url(#SVGID_6_);fill:#272425;}
	.st23{clip-path:url(#SVGID_6_);fill:#393339;}
	.st24{clip-path:url(#SVGID_6_);fill:#473E3C;}
	.st25{clip-path:url(#SVGID_6_);fill:#474144;}
	.st26{clip-path:url(#SVGID_6_);fill:#A29DA1;}
	.st27{clip-path:url(#SVGID_6_);fill:#4C4748;}
	.st28{clip-path:url(#SVGID_6_);fill:#0B0A0A;}
	.st29{clip-path:url(#SVGID_6_);fill:#484443;}
	.st30{clip-path:url(#SVGID_6_);fill:#151515;}
	.st31{clip-path:url(#SVGID_6_);fill:#434344;}
	.st32{clip-path:url(#SVGID_6_);fill:#77787C;}
	.st33{clip-path:url(#SVGID_6_);fill:#181617;}
	.st34{clip-path:url(#SVGID_6_);fill:#0B0A0B;}
	.st35{clip-path:url(#SVGID_6_);fill:#222022;}
	.st36{clip-path:url(#SVGID_6_);fill:#282628;}
	.st37{clip-path:url(#SVGID_6_);fill:#2C292A;}
	.st38{clip-path:url(#SVGID_6_);fill:#141416;}
	.st39{clip-path:url(#SVGID_6_);fill:#0C0B0C;}
	.st40{clip-path:url(#SVGID_6_);fill:#0F0E0E;}
	.st41{clip-path:url(#SVGID_6_);fill:#1F1D1F;}
	.st42{clip-path:url(#SVGID_6_);fill:#100F10;}
	.st43{clip-path:url(#SVGID_6_);fill:#B9B9B9;}
	.st44{clip-path:url(#SVGID_6_);fill:#685E68;}
	.st45{clip-path:url(#SVGID_6_);fill:#494141;}
	.st46{clip-path:url(#SVGID_6_);fill:#4F4649;}
	.st47{clip-path:url(#SVGID_6_);fill:#080808;}
	.st48{clip-path:url(#SVGID_6_);fill:#1A191A;}
	.st49{clip-path:url(#SVGID_6_);fill:#171517;}
	.st50{clip-path:url(#SVGID_6_);fill:#FEFEFE;}
	.st51{clip-path:url(#SVGID_6_);fill:#111111;}
	.st52{clip-path:url(#SVGID_6_);fill:#C9C9C9;}
	.st53{clip-path:url(#SVGID_6_);fill:#0B0A0C;}
	.st54{clip-path:url(#SVGID_6_);fill:#45383E;}
</style>
<g>
	<defs>
		<rect id="SVGID_1_" x="0" y="0.19" width="612" height="792"/>
	</defs>
	<clipPath id="SVGID_2_">
		<use xlink:href="#SVGID_1_"  style="overflow:visible;"/>
	</clipPath>
	<g class="st0">
		<defs>
			<rect id="SVGID_3_" x="54" y="308.83" width="333.84" height="204.72"/>
		</defs>
		<clipPath id="SVGID_4_">
			<use xlink:href="#SVGID_3_"  style="overflow:visible;"/>
		</clipPath>
		<g class="st1">
			<defs>
				<rect id="SVGID_5_" x="54" y="308.83" width="333.84" height="204.72"/>
			</defs>
			<clipPath id="SVGID_6_">
				<use xlink:href="#SVGID_5_"  style="overflow:visible;"/>
			</clipPath>
			<path class="st2" d="M63.14,400.17c-0.17-1.92,0.05-3.84,0-5.75c-0.34-0.4-0.25-0.8-0.01-1.2c0-2.32-0.24-4.65,0.03-6.96
				c0.22-1.84,0.62-3.67,0.94-5.5c-0.02-0.35,0.04-0.68,0.21-1c0.21-1.66,0.51-3.31,0.62-4.97c0.15-2.25,0.21-4.51,0.31-6.77
				c0.07-1.63,0.16-3.3,0.41-4.86c0.5-3.17-0.42-6.39,0.56-9.52c0.13-0.43,0.24-1.14-0.07-1.7c-0.09-0.16-0.14-0.41-0.08-0.58
				c0.58-1.73-0.14-3.39-0.25-5.09c-0.11-1.77-0.06-3.58,0.46-5.28c0.63-2.05,0.42-4.1,0.27-6.15c-0.2-2.68,0.3-5.34,0.16-8.01
				c-0.13-0.28-0.22-0.57-0.17-0.88c0.19-0.56,0.14-1.1-0.17-1.59c-0.56-0.91-0.31-1.79,0.22-2.55c0.42-0.6,0.68-1.24,0.91-1.91
				c0.11-0.46,0.43-0.81,0.65-1.22c0.41-0.43,0.27-0.97,0.27-1.47c0-0.44,0.36-0.58,0.61-0.6c0.34-0.03,0.35,0.34,0.35,0.62
				c0,0.44,0,0.87,0,1.3c0.19,0.02,0.22-0.06,0.25-0.18c0.11-0.42-0.01-0.97,0.61-1.11c0.67-0.16,1.02,0.2,1.31,0.73
				c0.14,0.26,0.32,0.85,0.52-0.03c0.1-0.44,0.53,0,0.57,0.12c0.18,0.51,0.26,1.05,0.38,1.58c0.09,0.21,0.2,0.41,0.22,0.65
				c-0.29,1.3,0.42,2.28,1.03,3.3c0.17,0.25,0.09,0.62,0.38,0.82c0.79,0.97,1.66,1.89,2.36,2.93c1.23,1.82,1.95,3.89,2.8,5.9
				c0.03,0.07,0.11,0.19,0.08,0.21c-1.3,1.48,0.46,2.26,0.83,3.31c0.58,1.68,1.33,3.34,2.28,4.83c0.89,1.41,1.14,3.11,2.23,4.4
				c0.27,0.32,0.43,0.85,0.28,1.31c-0.12,0.37,0.11,0.55,0.32,0.66c1.82,0.96,2.09,2.92,2.97,4.49c0.52,0.35,0.63,0.88,0.67,1.45
				c0.51,0.74,0.66,1.67,1.28,2.38c0.36,0.41,0.43,0.97,1.22,0.63c0.52-0.23,0.46,0.26,0.29,0.53c-0.19,0.3-0.52,0.52-0.27,1
				c0.61-0.39,0.97-0.99,1.42-1.52c1.34-1.61,2.7-3.19,4.02-4.82c1.95-2.4,4.08-4.65,5.89-7.2c1.44-2.03,2.34-4.37,3.92-6.3
				c0.34-0.42,0.62-0.99,0.53-1.63c-0.03-0.23,0.36-0.52-0.27-0.62c-0.57-0.09,0.01-0.67,0.04-0.68c1.33-0.44,1.03-1.85,1.63-2.71
				c0.06-0.09-0.14-0.32,0.1-0.36c1.97-0.37,1.56-2.15,2.12-3.4c0.62-1.39,0.84-2.9,1.76-4.24c0.54-0.78,1.22-1.97,0.69-3.32
				c-0.57-1.46-0.52-3.06,0.04-4.7c1.05,1.37,0.96-0.28,1.43-0.51c0.23-0.11,0.13-0.82,0.72-0.62c0.69,0.23,1.59-0.26,2.08,0.61
				c0.83,1.44,1.94,2.64,3.05,3.86c0.76,0.84,1.26,1.93,1.9,2.89c1.35,2.01,2.69,4.02,4.09,5.99c0.58,0.81,0.95,1.64,0.97,2.63
				c0.07,3.09,0.15,6.19,0.21,9.28c0.03,1.36,0.35,2.84-0.05,4.07c-1.39,4.21-0.25,8.48-0.63,12.71c-0.21,2.3-0.88,4.51-1.24,6.77
				c-0.37,2.31-1.01,4.58-0.98,6.97c0.01,0.89-0.42,1.81-0.74,2.68c-0.4,1.08-0.55,2.18-0.67,3.31c-0.12,1.17-0.48,2.31-0.71,3.46
				c-0.3,1.44-0.95,2.86-0.24,4.36c0.24,0.51-0.48,0.6-0.48,1.08c0.01,2.33-0.74,4.62-0.28,6.98c0.07,0.37-0.29,0.8-0.31,1.22
				c-0.18,3.46-0.5,6.92-0.36,10.38c0.08,1.97-0.44,3.87-0.56,5.82c-0.11,1.69-0.07,3.37-0.13,5.05c-0.14,3.89,0.04,7.79-0.47,11.68
				c-0.4,3.01-0.48,6.06-0.75,9.09c-0.09,0.97-0.23,2-0.21,2.92c0.04,2.27-0.5,4.49-0.31,6.76c0.1,1.24-0.15,2.56-0.07,3.76
				c0.08,1.18-0.17,2.34-0.02,3.43c0.41,2.97-0.04,5.93,0,8.88c0.05,4.43,0.6,8.83,0.45,13.27c-0.07,2.11,0.52,4.37-0.01,6.37
				c-0.77,2.89-0.31,5.74-0.54,8.6c-0.05,0.63-0.01,1.25,0.17,1.88c0.44,1.52-0.46,2.9-0.57,4.39c-0.09,1.23-0.25,2.5-0.3,3.75
				c-0.06,1.3-0.66,2.02-1.84,2.03c-2.07,0.01-2.3-0.19-2.47-1.8c-0.18-1.71-0.18-3.46-0.11-5.18c0.04-0.9-0.08-1.68-0.42-2.52
				c-0.44-1.1-0.66-2.2-0.32-3.52c0.35-1.34,0.04-2.85-0.05-4.29c-0.11-1.7-0.08-3.37-0.59-5.08c-0.31-1.04-0.06-2.44-0.06-3.66
				c-0.01-1.76,0.02-3.56-0.21-5.32c-0.29-2.2-0.3-4.4-0.29-6.62c0-1.97,0.27-3.94,0.05-5.93c-0.17-1.56,0-3.15-0.17-4.71
				c-0.24-2.16,0.48-4.25,0.29-6.41c-0.15-1.7-0.04-3.43-0.03-5.14c0.01-1.18-0.48-2.28-0.3-3.53c0.17-1.12,0.42-2.26,0.24-3.49
				c-0.26-1.74-0.2-3.55-0.7-5.25c-0.2-0.69,0.08-1.45-0.4-2.07c-0.07-0.5-0.68-0.9-0.32-1.49c0.13-1.71,0.46-3.45,0.09-5.14
				c-0.56-2.54,0.41-4.99,0.19-7.52c-0.42-4.94,0.5-9.86,0.44-14.81c-0.02-1.74,0.74-3.38,0.79-5.14c0.08-2.54,0.28-5.07,0.49-7.6
				c0.18-2.19,0.31-4.39,1.26-6.46c0.45-0.97,0.25-2.11,0.15-3.13c-0.18-1.85,0.21-3.64,0.29-5.46c0.08-1.73,0.18-3.46,0.12-5.18
				c-0.07-1.97,0.39-3.83,0.91-5.69c0.42-1.47,0.54-2.98,0.47-4.48c-0.11-2.12,0.06-4.23,0.13-6.35c0.09-2.46-0.72-4.72-1.05-7.2
				c-1.47,3.58-3.53,6.65-5.48,9.77c-1.62,2.6-3.48,5.03-5.38,7.41c-1.47,1.84-3.31,3.38-4.89,5.12c-0.84,0.92-1.49,1.88-2.7,2.4
				c-0.42,0.18-0.67,0.83-1.22,1.02c-0.64,0.22-1.2,0.51-0.4,1.22c0.18,0.16,0.24,0.28,0.03,0.48c-0.34,0.32-0.66,0.14-0.99,0.01
				c-0.55-0.9-1.4-0.29-2.11-0.42c-0.03,0.23,0.33,0.34,0.17,0.6l0,0c-0.45,0.13-0.23,0.79-0.71,0.9c-0.08,0.1-0.16,0.2-0.24,0.3
				c0.13,0.39-0.24,0.61-0.4,0.49c-0.71-0.52-1.29,0.12-1.92,0.11c-0.31-0.17-0.59-0.48-0.99-0.2c-0.18,0.27-0.81-0.03-0.72,0.57
				c-0.1,0.11-0.22,0.15-0.35,0.18c-0.2,0.48,0.27,0.82,0.27,1.25c-0.39,0.49-0.66,0.2-0.84-0.18c-1.05-2.28-2.67-4.24-3.68-6.54
				c-0.18-0.24-0.13-0.42,0.14-0.54c0.52,0.1,0.55,0.68,0.92,0.93c0.09,0.13,0.13,0.29,0.17,0.43c0.03,0.05,0.06,0.11,0.1,0.16
				c0.13-0.1-0.05-0.15-0.04-0.23c-0.08-0.31-0.31-0.52-0.51-0.73c-0.6-0.92-1.09-1.89-1.65-2.83c-0.16-0.84-0.68-1.46-1.23-2.07
				c0.42,0.62,0.69,1.33,1.09,1.97c0.22,0.64,1,1.02,0.88,1.83c-0.1,0.16-0.22,0.28-0.43,0.16c-1.28-1.62-2.07-3.55-3.23-5.25
				c-0.22-0.33-0.46-0.49-0.77-0.63c-0.67-0.3-1.01-0.24-0.98,0.65c0.06,1.87,0.06,3.74,0.02,5.61c-0.05,2.66-0.27,5.33-0.2,7.99
				c0.08,2.92-0.81,5.74-0.72,8.65c0.06,1.94,0.28,3.88,0.16,5.83c-0.19,3.31,0.23,6.73-0.78,9.9c-0.64,2.02,0.17,3.95-0.38,5.87
				c-0.18,0.63,0.28,1.2,0.24,1.85c-0.05,0.93-0.56,1.75-0.65,2.57c-0.21,1.81-0.07,3.68,0.03,5.51c0.03,0.5,0.05,0.81-0.2,1.33
				c-0.31,0.63-0.41,1.58,0.11,2.33c0.06,0.09,0.2,0.23,0.18,0.25c-1.07,1.17,0.73,2.67-0.47,3.88c-0.24,0.24,0.01,1.01,0.1,1.52
				c0.13,0.66,0.52,1.3-0.24,1.89c-0.26,0.2,0.08,0.57,0.15,0.86c0.19,0.79-0.22,1.63,0.2,2.41c0.01,0.03,0,0.1-0.01,0.1
				c-1.14,0.36-0.6,1.5-0.72,2.12c-0.33,1.69-0.49,3.46-0.57,5.18c-0.07,1.59-0.05,3.3,0.58,4.87c0.07,0.17-0.01,0.31-0.16,0.4
				c-0.24,0.27-0.11,0.61-0.1,0.9c0.06,1.38-0.69,2.27-1.72,3.01c-1.23,0.51-2.49,0.06-3.74,0.11c-0.48,0.02-0.98-0.35-0.82-1.09
				c0.07-0.31,0.17-0.71-0.14-1c-0.3-1.65-0.77-3.28-0.69-4.99c0.03-0.53-0.17-0.97-0.49-1.42c-0.85-1.19-1.42-2.42-1.22-4.01
				c0.19-1.59-0.07-3.22-0.42-4.8c-0.21-0.94-0.19-1.91-0.18-2.82c0.01-1.99-0.43-3.96-0.11-5.98c0.19-1.15-0.11-2.38-0.08-3.57
				c0.04-1.36,0.08-2.72,0.1-4.08c0.04-2.6-0.38-5.19-0.73-7.77c-0.13-0.99,0.27-2.02-0.2-2.99
				C62.64,400.9,63.17,400.59,63.14,400.17"/>
			<path class="st2" d="M296.68,359.88c-0.48-1-0.27-2.05-0.19-3.09c0.13-0.21,0.01-0.51,0.15-0.69c1.17-1.52,0.68-3.15,0.41-4.79
				c-0.3-1.85-0.02-3.7,0.12-5.55c0-2.83,0.09-5.67-0.03-8.5c-0.06-1.3-0.05-2.47,0.73-3.58c0.43-0.6,1.01-0.9,1.62-1.05
				c0.83-0.2,1.44,0.09,1.83,1.04c0.7,1.72,0.64,3.57,1.14,5.32c0.13,0.45,0.16,0.86,0.5,1.27c0.37,0.43,0.48,1.05,0.47,1.67
				c-0.03,2.49-0.17,4.96-0.42,7.45c-0.07,0.72-0.22,1.68,0.38,2.49c0.57,0.76,0.26,1.79,0.21,2.67c-0.08,1.31,0.41,2.47,0.67,3.69
				c0.23,1.09,0.44,2.13,0.16,3.24c-0.18,0.73,0.41,1.38,0.39,2.09c-0.09,3.23,0.26,6.45,0.26,9.68c0.01,3.7-0.28,7.39-0.32,11.08
				c-0.04,2.88-0.42,5.76-0.54,8.64c-0.11,2.66-0.08,5.32-0.1,7.98c-0.02,2.28,0.01,4.56-0.03,6.83c-0.01,0.68,0.15,1.46-0.8,1.8
				c-0.29,0.1-0.26,0.61-0.22,0.96c0.44,3.34,0.16,6.7,0.34,10.05c0.03,0.62,0.39,1.21,0.17,1.97c1.32-0.44,2.57-0.75,3.72-1.25
				c2.05-0.9,4.2-1.22,6.38-1.49c2.53-0.31,4.9-1.32,7.36-1.85c3.34-0.71,6.62-1.6,9.83-2.74c1.31-0.46,2.59-1.08,3.77-1.91
				c1.46-1.01,3.2-1.37,4.96-1.37c1.37,0,2.64-0.35,3.94-0.68c1.83-0.46,3.72-0.69,5.58-1.03c3.63-0.65,7.27-0.96,10.97-1.03
				c3.06-0.06,6.11-0.78,9.16-1.15c1.6-0.2,3.21-0.24,4.81-0.45c1.31-0.17,2.63,0.05,3.95-0.2c1.06-0.2,2.09,0.05,2.56,1.17
				c0.37,0.89-0.32,2.9-1.23,3.16c-0.92,0.26-2,0.65-2.87,0.51c-1.06-0.18-1.91,0.26-2.86,0.28c-0.89,0.02-1.75,0.06-2.61,0.49
				c-0.52,0.26-1.16-0.34-1.88-0.39c-2.47-0.16-4.96-0.15-7.37,0.14c-1.58,0.19-3.29-0.16-4.84,0.74c-0.33,0.19-1.32-0.14-2.02-0.16
				c-2.01-0.05-3.96,0.27-5.89,0.73c-1.89,0.44-3.84,0.49-5.71,1.13c-2.01,0.68-3.96,1.48-5.86,2.41c-2.45,1.21-4.87,2.46-7.34,3.62
				c-2.18,1.03-4.41,1.94-6.6,2.94c-0.58,0.27-1.15,0.4-1.79,0.49c-1.86,0.27-3.69,0.66-5.45,1.35c-1.38,0.53-2.9,0.7-4.11,1.66
				c-0.18,0.15-0.47,0.19-0.61,0.36c-1.44,1.79-3.71,2.13-5.57,3.18c-0.16,0.09-0.36,0.01-0.53,0.2c-1.49,1.65-3.38,1.34-5.19,0.87
				c-1.83-0.47-3.6-1.18-4.93-2.65c-0.66-0.73-1.06-1.5-1.05-2.53c0.04-3.11,0.02-6.23,0.01-9.35c0-0.83,0.05-1.67-0.42-2.43
				c-0.11-0.18-0.11-0.47-0.06-0.69c0.67-2.96,0.1-5.94,0.19-8.91c-0.08-0.18-0.07-0.38-0.04-0.57c0.27-2.29,0.29-4.59,0.22-6.89
				c-0.11-3.61-0.1-7.23,0.47-10.78c0.44-2.73,0.77-5.48,1.15-8.22c0.14-1.05,0.17-2.12,0.3-3.18c0.38-3.22,0.26-6.47,0.36-9.7
				c0.05-1.76,0.02-3.54,0.12-5.31C296.6,360.66,296.49,360.25,296.68,359.88"/>
			<path class="st3" d="M296.21,376.2c-0.43,4.16-0.88,8.31-1.46,12.45c-0.29,2.08-0.43,4.23-0.27,6.39
				c0.18,2.44,0.09,4.92-0.04,7.37c-0.05,0.92,0.43,1.95-0.34,2.8c-0.26-0.1-0.16-0.36-0.25-0.54c0.12-0.55-0.37-1.03-0.19-1.59
				c0.04-0.26,0.07-0.51-0.07-0.76c-0.12-3.15,0.27-6.29,0.3-9.45c0.02-2-0.01-4.12,0.52-5.99c0.7-2.49,0.75-5.02,1.23-7.51
				c0.2-1.05,0.02-2.14,0.37-3.17C296.07,376.09,296.14,376.09,296.21,376.2"/>
			<path class="st4" d="M66.94,443.8c0.54,0.44,0.15,1.05,0.27,1.45c1.43,0.52,2.87,0.46,4.31,0.43c0.27,0.57-0.02,0.79-0.54,0.86
				c-0.1-0.01-0.16-0.06-0.14-0.13c0.04-0.15,0-0.23-0.02-0.07c-0.06,0.46,0.13,0.89,0.21,1.33c0.08,0.46,0.28,0.91,0.02,1.37l0,0
				c-0.61,0.15-0.52-0.64-0.96-0.71c-0.49,0.51-0.96,0.72-1.44-0.04c-0.21-0.33-0.46-0.96-0.77,0c-0.2,0.62-0.68,0.43-0.97,0.04
				c-0.42-0.57-0.76-1.19-0.34-1.92C67.05,445.59,67.04,444.7,66.94,443.8"/>
			<path class="st5" d="M239.62,400.89c0.46,2.14,0.39,2.4-1.19,4.73c-0.41-0.28-0.13-0.98-0.69-1.13c0.01-1.68,0.01-3.36,0.02-5.04
				c0.17-0.41,0.36-0.26,0.63-0.06C238.94,399.78,238.92,400.63,239.62,400.89"/>
			<path class="st6" d="M297.17,345.75c-0.26,2.92,0.32,5.78,0.56,8.67c0.04,0.52-0.04,0.83-0.4,1.11c-0.42,0.33-0.6,0.81-0.84,1.25
				C296.34,353.09,296.65,349.41,297.17,345.75"/>
			<path class="st7" d="M239.62,400.89c-0.48,0.2-0.96,0.55-0.89-0.48c0.02-0.3-0.25-1.04-0.97-0.96c-0.13-1.07,0.1-2.03,0.86-2.84
				c0.52-0.55,0.4-1.27,0.46-1.93c0.58,1.06,0.33,2.26,0.51,3.39C239.74,398.99,239.63,399.94,239.62,400.89"/>
			<path class="st8" d="M68.14,318.68"/>
			<path class="st9" d="M296.21,376.2c-0.06,0-0.13,0.01-0.19,0.01c-0.19-1.28,0.17-2.53,0.24-3.79c0.08-1.47-0.36-2.92-0.23-4.36
				c0.23-2.64,0.26-5.29,0.46-7.93c0.01-0.09,0.14-0.17,0.21-0.25c-0.11,4.37,0.14,8.76-0.23,13.12
				C296.36,374.07,296.19,375.12,296.21,376.2"/>
			<path class="st10" d="M245.34,342.11c0.06,1.54-0.6,2.93-0.97,4.37c-0.33,1.25-0.79,2.48-0.99,3.76
				c-0.16,0.99-0.67,1.83-1.08,2.72c-0.06-1.32,0.79-2.41,0.92-3.69c0.09-0.84,0.33-1.61,0.16-2.51c-0.08-0.41-0.45-1.69,0.87-1.93
				c0.25-0.05,0.28-1.02,0.59-1.52C245.07,342.94,245.18,342.51,245.34,342.11"/>
			<path class="st11" d="M156.66,391.54c1.28-0.74,2.68-0.56,4.02-0.34c0.77,0.12,1.75-0.22,2.28,0.82c0.16,0.31,0.4,0.56,0.4,0.93
				c-0.01,1.86-0.01,3.73-0.02,5.59c-0.32-1.41-0.32-2.84-0.21-4.27c0.14-1.85-0.48-2.59-2.56-2.54
				C159.26,391.76,157.95,391.9,156.66,391.54"/>
			<path class="st12" d="M70.83,446.42c0.46-0.03,0.7-0.27,0.69-0.74c1.18-1,1.74-2.31,1.93-3.82c0.18,1.82-0.35,3.53-0.92,5.22
				c0.01,0.59-0.36,0.79-0.86,0.87c-0.6-0.07-0.33-0.84-0.82-1C70.7,446.79,70.63,446.61,70.83,446.42"/>
			<path class="st7" d="M223.24,412.9c1.96,0.18,2.69,1.79,3.65,3.15l-0.08,0l-0.07-0.03c-1.25-0.25-1.88-1.49-3.02-1.91
				C223.56,413.7,223.4,413.3,223.24,412.9"/>
			<path class="st13" d="M135.08,384.63c0.36,0.54,0.29,1.01-0.25,1.39c-0.22,0.46-0.27,1.58-0.96,0.24
				c-0.11-0.21-0.43-0.11-0.66-0.11c-0.41-0.04-0.88,0.71-1.24-0.08C133.01,385.59,134.04,385.11,135.08,384.63"/>
			<path class="st14" d="M86.88,372.37c-0.27-0.75,0.37-0.57,0.71-0.7c0.35,0.23,0.53,0.59,0.72,0.94c-0.49,0.4-0.98,0.8-1.47,1.2
				c-0.46-0.38-0.78-0.82-0.62-1.46c0.01-0.02,0.07-0.03,0.1-0.03c0.03,0.01,0.06,0.05,0.09,0.07
				C86.58,372.68,86.73,372.65,86.88,372.37"/>
			<path class="st15" d="M71.55,447.88c0.33-0.26,0.79-0.37,0.98-0.8c0.06,0.77,0.2,1.59-1.02,1.53c-0.15-0.01-0.31,0.28-0.46,0.43
				c-0.19-0.92-0.58-1.81-0.46-2.78c0-0.03,0.04-0.05,0.06-0.07c0.06,0.07,0.12,0.15,0.18,0.23c-0.01,0.2,0.03,0.37,0.22,0.49
				C71.43,447.12,70.94,447.79,71.55,447.88"/>
			<path class="st16" d="M133.16,386.03c0.3,0.03,0.71-0.14,0.87,0.18c0.58,1.15,0.52-0.24,0.82-0.19c0.17,0.93,0.72,1.61,1.42,2.2
				c-0.71-0.07-2.18-1.02-2.36-1.64c-0.15-0.51-0.49-0.24-0.74-0.32c-0.06-0.05-0.08-0.1-0.06-0.15
				C133.12,386.06,133.14,386.03,133.16,386.03"/>
			<path class="st17" d="M91.91,370.2c-0.09-0.5-0.61-0.2-0.85-0.42c0.94-0.79,2.5-0.65,2.79,0.24
				C93.14,369.39,92.53,369.91,91.91,370.2"/>
			<path class="st17" d="M88.56,371.89c0.35,0.19,0.42-1.08,0.91-0.18c0.05-0.09,0.11-0.18,0.16-0.28c0.26-0.52,0.3-0.55,0.61-0.03
				c0.29,0.48,0.47,0.45,0.72,0c0.45,0.64-0.18,0.85-0.45,0.68c-0.57-0.37-0.98,0.15-1.46,0.05c-0.25,0.12-0.51,0.26-0.69-0.07
				C88.28,371.92,88.44,371.89,88.56,371.89"/>
			<path class="st18" d="M223.72,414.11c1.28,0.21,2.01,1.28,3.02,1.91c-0.6,0.26-0.89-0.24-1.26-0.53
				C224.88,415.04,224.3,414.57,223.72,414.11"/>
			<path class="st19" d="M282.1,428.53c0.07-0.97,0.13-1.94,0.2-2.92c0.4,0.74,0.24,1.58,0.46,2.36
				C282.93,428.53,282.39,428.42,282.1,428.53"/>
			<path class="st16" d="M136.24,388.22c1.4,0.01,2.71,0.29,3.87,1.12C138.84,388.91,137.47,388.79,136.24,388.22"/>
			<path class="st20" d="M88.56,371.89c-0.03,0.48,0.34,0.12,0.49,0.24c-0.24,0.16-0.49,0.32-0.73,0.48
				c-0.55-0.08-0.64-0.51-0.72-0.94C88.1,370.9,88.38,371.16,88.56,371.89"/>
			<path class="st21" d="M89.48,353.91c-0.42-0.39-0.44-0.97-0.68-1.45C89.46,352.74,90.35,352.92,89.48,353.91"/>
			<path class="st22" d="M133.16,386.03c0,0.08,0,0.16,0,0.23c-0.39,0.23-0.77,0.47-1.24,0.48c-0.26,0-0.46-0.04-0.44-0.38
				c0.02-0.35,0.23-0.34,0.49-0.29C132.38,386.51,132.76,385.99,133.16,386.03"/>
			<path class="st23" d="M245.82,387.25c0.25-1.38,1.3-0.56,1.99-0.72C247.06,386.54,246.54,387.18,245.82,387.25"/>
			<path class="st24" d="M63.13,393.21c0,0.4,0,0.8,0,1.2c-0.24-0.05-0.62,0.24-0.69-0.18C62.36,393.73,62.78,393.47,63.13,393.21"
				/>
			<path class="st25" d="M63.14,400.17c0.21,0.45-0.08,0.81-0.23,1.2C62.23,400.82,63.01,400.56,63.14,400.17"/>
			<path class="st26" d="M110.59,426.76c-0.39,0.6,0.8,0.87,0.32,1.49C110.37,427.85,110.08,427.39,110.59,426.76"/>
			<path class="st27" d="M187.61,382.89c-0.41,0.5-0.86,0.79-1.47,0.29C186.72,383.51,187.05,382.62,187.61,382.89"/>
			<path class="st28" d="M81.75,366.17c0.11-0.09,0.22-0.18,0.33-0.28c0.51,0.01,0.71,0.23,0.47,0.72c-0.19,0.1-0.21,0.29-0.23,0.47
				C81.97,366.88,82.21,366.32,81.75,366.17"/>
			<path class="st29" d="M64.31,379.76c0.07,0.36,0.08,0.71-0.21,1C63.59,380.3,63.97,380.03,64.31,379.76"/>
			<path class="st15" d="M70.08,448.34c0.52-0.04,0.53,0.62,0.96,0.71C70.2,449.52,70.46,448.51,70.08,448.34"/>
			<path class="st30" d="M151.61,353.42c-0.15,0.4,0.45,0.81-0.01,1.21C151.48,354.22,151.09,353.82,151.61,353.42"/>
			<path class="st30" d="M152.1,352.95c-0.17,0.16-0.33,0.31-0.5,0.47c0.09-0.3-0.17-0.76,0.29-0.88
				C152.17,352.47,152.01,352.82,152.1,352.95"/>
			<path class="st17" d="M91.2,371.11c0.28-0.26,0.1-0.89,0.71-0.9C91.41,370.31,92.07,371.31,91.2,371.11"/>
			<path class="st31" d="M145.18,380.27c0.13,0.31,0.64,0.53,0.24,0.97C145.19,380.95,145.03,380.65,145.18,380.27"/>
			<path class="st32" d="M232.23,385.27c0.09-0.11,0.24-0.34,0.27-0.33c0.33,0.18,0.1,0.53,0.21,0.79
				C232.37,385.77,232.3,385.52,232.23,385.27"/>
			<path class="st33" d="M215.62,350.57c-1.12-0.83-2.35-1.41-3.75-1.52c-0.38-0.03-0.3-0.42-0.51-0.57
				c-0.13-0.09-0.14-0.19-0.03-0.31c0.88,0,1.76,0,2.63,0c1.32,0.29,2.06,1.38,3.01,2.17c0.14,0.99-0.34,0.79-0.89,0.46
				C215.93,350.72,215.77,350.67,215.62,350.57"/>
			<path class="st34" d="M216.84,350.32c-0.64-0.17-1.43-0.17-1.26-1.19c-0.85,0.19-1.11-0.6-1.63-0.96
				c0.86,0.06,1.72,0.09,2.57,0.19c1.38,0.16,1.74,0.6,1.75,1.98c0,0.4,0,0.79,0,1.19c-0.48,0.06-0.47-0.34-0.51-0.61
				c-0.07-0.53-0.37-0.92-0.68-1.29C217.08,349.86,217.08,350.13,216.84,350.32"/>
			<path class="st35" d="M250.88,355.83c-0.03,1.12-0.13,2.17-0.6,3.28c-0.4,0.93,0.03,2.16-0.32,3.25
				c-0.15,0.47-0.18,0.98-0.52,1.38c-0.7-0.28-0.3-0.77-0.23-1.2C249.7,360.29,250.17,358.03,250.88,355.83"/>
			<path class="st36" d="M253.77,378.88c0.14-0.07,0.35-0.24,0.4-0.2c1.99,1.5,4.38,0.68,6.55,1.13c-1.63,0.55-3.29,0.15-4.93,0.11
				c-0.82-0.02-1.67-0.05-2.5-0.12C252.91,379.2,253.74,379.25,253.77,378.88"/>
			<path class="st37" d="M215.62,350.57c0.17,0,0.33,0,0.5-0.01c0.44,0.56,0.85,1.23,1.64,0.41c0.25,0.46,0.23,0.93,0.51,1.27
				c-0.3,1.01,0.45,2.12-0.28,3.09c-0.19-0.45,0.29-1.11-0.55-1.42c-0.32-0.12,0.19-0.48,0.31-0.74c0.08-0.16,0.1-0.46,0.01-0.56
				c-0.24-0.24-0.23,0.15-0.37,0.22c-0.37,0.19-0.53-0.03-0.59-0.32C216.65,351.73,215.9,351.29,215.62,350.57"/>
			<path class="st38" d="M218.27,352.24c-0.45-0.16-0.42-0.61-0.56-0.98c-0.29,0.16-0.1,0.79-0.47,0.66
				c-0.58-0.21-0.99-0.72-1.13-1.36c0.2-0.19,0.8,0.81,0.72-0.24c0.07-0.26-0.19-0.7,0.25-0.77c0.35-0.05,0.64,0.16,0.83,0.53
				c0.24,0.46-0.1,1.05,0.35,1.44L218.27,352.24z"/>
			<path class="st39" d="M211.33,348.16c0.01,0.1,0.02,0.21,0.03,0.31c-0.07,0.13-0.12,0.38-0.2,0.38c-1.57,0.12-3.15,0.21-4.72,0.3
				C208.08,348.83,209.61,348.02,211.33,348.16"/>
			<path class="st40" d="M249.22,362.54c0.06,0.4-0.16,0.86,0.23,1.2c-0.24,0.96-0.48,1.92-0.72,2.88
				C248.33,365.19,248.59,363.84,249.22,362.54"/>
			<path class="st41" d="M253.77,378.88c0.62,0.71-0.57,0.48-0.48,0.91c-0.48-0.08-0.96-0.16-1.44-0.24
				c-0.19-0.21-0.21-0.43-0.01-0.65C252.49,378.3,253.13,378.94,253.77,378.88"/>
			<path class="st42" d="M251.85,378.9c0,0.22,0.01,0.44,0.01,0.65c-0.8-0.22-1.71-0.07-2.4-0.67
				C250.26,378.88,251.05,378.89,251.85,378.9"/>
			<path class="st43" d="M202.94,350.31c-0.84,0.64-0.89,1.91-1.91,2.4C201.42,351.72,201.84,350.75,202.94,350.31"/>
			<path class="st44" d="M253.55,355.84c-0.05,0.19,0.02,0.57-0.37,0.3c-0.51-0.35-1.02-0.71-1.32-1.29
				C252.53,354.99,253.1,355.31,253.55,355.84"/>
			<path class="st45" d="M269.34,379.11c-0.4-0.43-1.48-0.63-0.49-1.51C269.05,378.09,269.32,378.56,269.34,379.11"/>
			<path class="st46" d="M264.55,369.27c-0.43-0.38-0.7-0.85-0.74-1.44C264.28,368.19,264.51,368.68,264.55,369.27"/>
			<path class="st47" d="M81.11,364.22c-0.77-0.73-0.87-1.79-1.33-2.67c0.71,0.83,1.94,1.3,1.82,2.67
				C81.44,364.37,81.28,364.22,81.11,364.22"/>
			<path class="st48" d="M81.11,364.22c0.16-0.27,0.32-0.03,0.48,0c0.71,0.87,1.17,1.89,1.69,2.87c0.13,0.17,0.15,0.33-0.01,0.5
				c-0.43-0.18-0.51-0.62-0.72-0.97c0.01-0.35-0.15-0.59-0.47-0.72C81.92,365.25,81.21,364.91,81.11,364.22"/>
			<path class="st28" d="M83.76,367.81c0.31,0.19,0.69,0.52,0.33,0.78c-0.41,0.3-0.6-0.25-0.81-0.55
				C83.42,367.91,83.49,367.65,83.76,367.81"/>
			<path class="st49" d="M83.76,367.81c-0.16,0.08-0.32,0.16-0.48,0.23c0-0.15-0.01-0.31-0.01-0.46c0-0.17,0.01-0.33,0.01-0.5
				C83.6,367.23,83.76,367.47,83.76,367.81"/>
			<path class="st50" d="M66.67,346.09c-0.22-0.38-0.23-0.78,0-1.45V346.09z"/>
			<path class="st51" d="M68.91,322.27c0.14-0.09,0.22-0.19,0.31-0.19c0.07,0,0.14,0.1,0.22,0.16c-0.08,0.07-0.15,0.18-0.24,0.2
				C69.13,322.45,69.04,322.35,68.91,322.27"/>
			<path class="st52" d="M71.45,320.78c-0.09-0.53-0.56-0.68-0.22-0.95c0.4-0.32,0.28,0.1,0.29,0.27
				C71.54,320.21,71.5,320.33,71.45,320.78"/>
			<path class="st53" d="M71.55,447.88c-0.06,0.25-0.2,0.5-0.37,0.13c-0.15-0.32-0.1-0.73-0.14-1.1c0.33-0.32,0.49-0.17,0.44,0.21
				C71.45,447.39,71.4,447.64,71.55,447.88"/>
			<path class="st54" d="M71.94,445.72v1.71C71.68,446.67,71.78,446.2,71.94,445.72"/>
		</g>
	</g>
</g>
<g>
	<polygon points="151.6,353.43 151.61,353.42 151.61,353.42 	"/>
	<path d="M285.08,456.74c-0.68-3.46-1.7-6.85-2.16-10.36c-0.17-1.33-0.26-2.67-0.35-4c-0.15-2.2-0.35-4.41-0.38-6.61
		c-0.03-2.41,0.1-4.83-0.08-7.24c0.52-0.94,0.32-1.93,0.2-2.92c-0.5-0.5,0.04-0.99,0.04-1.49c-0.01-1.43-0.19-2.85-0.27-4.27
		c-0.11-1.9-0.06-3.83-0.31-5.71c-0.21-1.6-0.13-3.18-0.21-4.77c-0.22-4.44-0.61-8.87-1.18-13.28c-0.24-1.88-0.4-3.77-1.21-5.54
		c-0.82-1.79-1.48-3.64-2.24-5.46c-0.38-0.91-0.02-1.27,0.85-1.44c0.97-0.2,1.93-0.43,2.86-0.75c0.73-0.25,1.21-0.84,1.15-1.64
		c-0.06-0.84-0.58-1.32-1.43-1.52c-0.76-0.17-1.51-0.12-2.26-0.13c-2.68-0.03-2.6-0.05-3.57-2.57c-1.66-4.34-3.18-8.74-5.07-12.99
		c-0.57-1.29-1.61-2.26-1.99-3.71c-0.91-3.46-2.44-6.56-5.55-8.72c-1.97-1.37-3.35-3.31-4.23-5.62c-0.35-0.92-0.8-1.85-1.66-2.58
		c-1.5-1.27-3.29-2.24-4.3-4.05c-0.27-0.49-0.89-0.7-1.46-0.68c-0.9,0.03-1.39-0.6-1.86-1.15c-0.68-0.79-1.58-0.82-2.2,0.06
		c-0.97,1.38-1.41,2.85-0.85,4.52c-0.24,0.66-0.32,1.37-0.58,2.03c-1.1,2.86-1.36,5.95-2.46,8.81c-0.6,1.34-0.5,2.84-0.96,4.22
		c-0.31,0.92-0.55,1.88-0.53,2.9c0.03,1.93,0.19,3.87-0.64,5.74c-0.28,0.62-0.22,1.4-0.31,2.1c-0.33,2.68-0.7,5.35-0.8,8.05
		c-0.02,0.58-0.16,1.14-0.86,1.23c-0.78,0.1-1.57,0.11-2.35,0.22c-2,0.28-4.38-0.14-5.07,2.67c-0.02,0.1-0.17,0.16-0.25,0.25
		c-1.45,1.63-0.86,3.83,1.21,4.48c0.27,0.09,0.4,0.24,0.49,0.46c0.28,0.03,0.28,0.35,0.48,0.46c1.17,0.66,2.44,0.29,3.66,0.28
		c2.55-0.01,2.51-0.03,2.56,2.52c0.04,2.05-0.23,4.1,0.16,6.14c0.28,0.15,0.16,0.42,0.14,0.63c-0.19,1.76,0.12,3.52,0.07,5.28
		c0.12,0.82,0.14,1.64,0.25,2.46c0.1,0.73-0.46,1.13-0.82,1.62c-0.4,0.53-0.59-0.42-0.98-0.17c-0.01,1.2-0.14,2.42,0.02,3.59
		c0.13,0.87,0.74,1.69-0.03,2.54c0.83,0.56,0.27,1.49,0.59,2.22c0.27,0.62-0.35,1.19-0.79,1.45c-0.39,0.23-0.58-0.45-0.7-0.76
		c-0.88-2.21-3.03-3.11-4.75-4.27c-1.74-1.18-2.87-2.6-3.82-4.36c-0.21-0.4-0.5-1.01-1.1-1.07c-0.72-0.08-1.1-0.58-1.39-1.12
		c-0.26-0.48-0.61-0.82-1.04-1.1c-1.33-0.9-2.68-1.7-3.56-3.16c-0.8-1.33-2.27-2.1-3.16-3.4c-0.66-0.97-1.22-2-2.54-2.46
		c-0.46-0.16-1.23-0.51-1.75-1.12c-0.42-0.49-0.72-1.17-1.23-1.53c-2.13-1.5-3.1-3.93-4.78-5.8c-0.77-0.86-1.68-1.64-2.36-2.61
		c-0.52-0.73-0.57-0.61,0.27-1.06c0.84-0.44,1.84,0.03,2.66-0.79c0.68-0.67,1.32-1.45,2.24-1.9c2.53-1.21,5.03-2.47,7.53-3.74
		c1.15-0.58,2.13-1.4,2.9-2.43c1.74-2.33,3.12-4.88,4.43-7.46c0.62-1.22,1.61-2.29,1.67-3.78c0.11-2.76,0.52-5.51,0.12-8.3
		c-0.31-2.17-0.39-4.34-2.35-5.85c-2.12-1.64-4.15-3.41-6.29-5.04c-1.05-0.81-2.22-1.71-3.6-1.58c-1.65,0.16-3.23-0.33-4.9-0.19
		c-1.56,0.13-3.25-0.41-4.76,0.01c-3.19,0.89-6.55,0.44-9.72,1.44c-1.21,0.38-2.24,0.85-2.5,2.17c-0.38,1.95-0.78,3.88-1.17,5.83
		c-0.55,2.77-0.67,5.58-0.48,8.41c0.14,2.16-0.49,4.25-0.69,6.39c-0.52,5.37-0.99,10.75-1.99,16.07c-0.21,1.1-0.31,2.27-1.12,3.18
		c-0.48,0.14-0.89,0.67-1.47,0.29c-1.69-1.25-3.76-1.24-5.69-1.69c-2.53-0.6-5.07,0.12-7.61,0.03c-1.06-0.03-1.37-0.25-1.36-1.35
		c0.02-1.88,0.13-3.82-0.72-5.57c-0.45-0.92-0.63-1.88-0.66-2.84c-0.15-4.58-1.13-8.96-2.76-13.23c-0.87-2.26-2.13-4.38-2.86-6.65
		c-0.89-2.76-2.05-5.34-3.35-7.9c-0.67-1.31-1.38-1.59-3.2-1.32c-1.2,0.18-1.75,1.24-1.91,2.16c-0.31,1.88-1.27,3.49-1.76,5.29
		c-0.12,0.45-0.28,0.98-0.94,1.12c-0.22,0.05-0.61,0.42-0.44,0.87c0.28,0.78-0.27,0.8-0.79,0.86c-0.46-0.15-0.27,0.37-0.49,0.47
		c-0.34,0.4,0.19,0.8,0,1.2c-0.63,0.48-1.15,0.97-0.13,1.6c0.24,0.15,0.22,0.47,0.13,0.66c-0.44,1.02-0.62,2.13-0.9,3.18
		c-0.46,1.7-1.83,3.07-1.64,5c0.03,0.38,0.5,0.58,0.22,1.12c-0.42,0.82-0.73,1.77-0.75,2.68c-0.05,1.6-1.41,2.77-1.22,4.45
		c0.24,2.18-0.53,4.11-1.85,5.84c-0.22,0.29-0.44,0.67-0.29,1.1c0.04,0.33,0.34,0.61,0.24,0.97c-0.48,0.83-0.46,2.02-1.94,2
		c-2.87-0.03-5.7,0.32-8.39,1.39c-0.08,0.52-0.26,1.01-0.44,1.5c0.12,1.02,0.61,1.75,1.61,2.09c1.31,0.31,2.66,0.46,3.86,1.12
		c0.66-0.02,1.06,0.18,0.98,0.96c-0.04,0.41-0.26,0.96,0.54,1.05c0.33,0.04,0.13,0.45,0.05,0.71c-0.8,2.66-1.94,5.18-2.6,7.91
		c-0.93,3.84-2.43,7.55-3.41,11.38c-0.78,3.08-2.52,5.82-2.93,9.03c-0.13,1.04,0.4,1.63,0.69,2.41c0.22,0.58,0.8,0.16,1.14,0.38
		c0.26,0.17,0.74,0.09,0.75,0.6c0,0.22,0.11,0.44,0.35,0.31c1.15-0.61,2.29-0.61,3.52-0.22c0.65,0.2,1.04-0.72,1.74-0.68
		c0.8,0.05,0.96-0.49,1.07-1.14c0.49-2.78,0.99-5.55,1.5-8.33c0.23-1.25,0.47-2.51,0.7-3.76c0.24-1.29,0.63-2.58,0.68-3.88
		c0.05-1.19,0.91-2,1.04-3.19c0.3-2.72,0.95-5.4,1.88-8c0.37-1.04,0.98-1.95,1.4-2.95c0.1-0.24,0.23-0.44,0.5-0.42
		c0.97,0.06,1.88-0.34,2.88-0.21c1.34,0.18,2.71,0.16,4.06,0.23c1.49-0.12,2.98-0.22,4.49-0.03c1.65,0.2,2.09,0.61,2.11,2.3
		c0.01,1.57-0.14,3.15,0.09,4.72c-0.3,1.05,0.15,2.16-0.06,3.14c-0.48,2.23-0.21,4.46-0.3,6.69c-0.12,2.94,0.03,5.89-0.09,8.83
		c-0.08,2.12-0.02,4.23,0.07,6.34c0.08,2.04,0.53,4.08,0.58,6.1c0.1,4.44-0.05,8.89,0.05,13.34c0.05,2.39,0,4.79,0.05,7.18
		c0.02,0.88,0.3,1.7,1.43,1.66c1.47-0.05,1.92-0.46,1.94-1.6c0.03-2.01,0.19-4.01,0.09-6.02c-0.02-0.37,0.07-1.13,0.82-0.49
		c0.23-0.41,0.67,0.46,1.18-0.37c0.44-0.72,0.32-1.33,0.42-1.92c0.25-1.4,0.34-2.82,0.17-4.28c-0.14-1.26,0.05-2.58-0.03-3.88
		c-0.04-0.54,0.4-0.52,0.67-0.69c1.42-0.9,2.19-2.12,2.49-3.83c0.22-1.3-0.1-2.64,0.4-3.88c0.14-0.34,0.04-0.55-0.02-0.87
		c-0.18-1.08-1.44-1.76-0.97-3.08c0.67-1.9,0.91-3.99,0.41-5.86c-0.91-3.4-0.97-6.86-1.29-10.3c-0.35-3.76,0.24-7.56-0.29-11.33
		c-0.09-0.64,0.12-0.92,0.83-0.92c1.18,0.01,2.37,0.32,3.5,0.27c3.45-0.17,6.9-0.16,10.35-0.21c0.62-0.01,0.66,0.12,0.69,0.69
		c0.11,1.72-0.59,3.32-0.48,5.07c0.18,2.95-0.6,5.85-0.62,8.84c-0.01,2.29-0.48,4.61-0.62,6.94c-0.19,3.21-0.57,6.41-0.31,9.63
		c0.08,0.92,0.42,1.54,1.3,1.76c0.68,0.17,1.13,0.47,1.35,1.18c0.22,0.74,0.9,1.03,1.6,0.98c0.72-0.05,1.37-0.53,1.48-1.22
		c0.3-2.08,1.05-4.11,1.18-6.16c0.18-2.91,0.84-5.77,0.8-8.68c-0.03-2.09,0.69-4.08,0.73-6.14c0.09-4.97,0.47-9.86,2.81-14.42
		c0.45-0.88,0.68-1.08,1.4-0.43c0.23,0.21,0.48,0.42,0.66,0.68c0.67,0.91,1.26,1.89,2.34,2.4c1.48,0.7,2.59,1.85,3.59,3.1
		c0.71,0.88,1.52,1.62,2.4,2.3c1.6,1.23,3.09,2.59,4.48,4.07c0.8,0.84,1.19,2.09,2.45,2.47c1.58,0.47,2.69,1.58,3.84,2.69
		c0.95,0.91,2.08,1.61,3.08,2.47c1.03,0.87,1.91,1.95,3.34,2.18c1.59,0.61,2.41,2.13,3.65,3.15c0.9,0.88,1.71,1.95,2.87,2.45
		c3.91,1.69,7.53,3.88,10.99,6.35c0.32,0.22,0.64,0.32,0.71-0.12c0.07-0.45,0.42-0.46,0.66-0.57c0.91-0.44,1.38-1.13,1.34-2.14
		c-0.13-3.25,0.2-6.49,0.22-9.74c0-0.2-0.04-0.43,0.03-0.59c0.88-1.88,0.53-3.95,0.73-5.9c0.34-3.23,0.09-6.52,0.03-9.78
		c-0.05-3.01,0.24-5.95,1.36-8.77c0.55-0.55,0.55-0.55,1.89-0.68c0.04,0,0.07-0.03,0.11-0.05c5.31,0.05,10.63-0.01,15.93,0.2
		c2.53,0.1,4.86-0.68,7.28-1.05c1.03-0.16,1.21,0.22,1.38,1.04c0.19,0.94,0.43,1.88,0.6,2.81c0.22,1.17,0.78,2.23,0.9,3.42
		c0.13,1.3,0.5,2.57,0.6,3.87c0.22,2.83,1.3,5.5,1.45,8.35c0.04,0.7-0.23,1.39,0.01,2.07c0.65,1.88,0.34,3.9,0.91,5.84
		c0.38,1.28,0.47,2.78,0.53,4.22c0.12,2.65,0.18,5.31,0.66,7.96c0.35,1.97,0.28,4.06,0.15,6.08c-0.4,6.16,0.48,12.19,1.73,18.18
		c0.54,2.59,1.17,5.16,1.44,7.8c0.16,1.62,1.21,2.68,2.33,2.51C284.88,459.65,285.41,458.43,285.08,456.74z M162.9,382.75
		c-1.38,0.04-2.74,0.47-4.14,0.33c-2.06-0.2-4.13,0-6.19,0.04c-0.69,0.01-0.89-0.14-0.75-0.86c0.57-2.99,1.35-5.92,2-8.88
		c0.72-3.29,2.16-6.35,2.68-9.68c0.04-0.27,0.12-0.55,0.09-0.82c-0.22-2.39,0.72-4.47,1.77-6.78c1.04,2.13,2.27,4,2.89,6.05
		c0.81,2.7,1.36,5.48,1.55,8.35c0.25,3.74-0.04,7.54,0.84,11.23C163.8,382.41,163.57,382.72,162.9,382.75z M200.08,373.51
		c-0.44,0.11-0.78,0.37-1.17,0.54c-1.05,0.43-1.54,0.07-1.53-1.05c0.04-1.96,0.63-3.83,0.99-5.73c0.2-1.08,0.46-2.14,0.44-3.26
		c-0.03-2.32,0.09-4.66,0.53-6.93c0.3-1.51,0.6-3.13,1.63-4.42c0.75-0.71,0.89-1.9,1.91-2.4c1.18-0.37,2.17-1.28,3.51-1.16
		c0.69,0.14,1.28-0.21,1.9-0.36c0.94-0.24,1.92-0.16,2.87-0.36c1.55,0.57,3.27,0.73,4.53,1.97c0.77,0.67,0.96,1.81,2.09,2.27
		c0.36,0.15,0.08,1.29,0.25,1.97c0.05,0.19,0.06,0.47-0.09,0.69c-0.6,0.74-0.1,1.61-0.26,2.43c-0.51,2.6-1.59,4.82-3.58,6.6
		c-1.71,1.53-3.26,3.22-4.95,4.77C206.5,371.5,203.4,372.66,200.08,373.51z M268.54,379.47c-2.62,0.1-5.25,0.18-7.87,0.27
		c-2.1,0.06-4.2,0.22-6.22-0.55c-0.23-0.09-0.45-0.16-0.69-0.13c-0.66,0.03-1.31-0.18-1.98-0.06c-0.8,0.03-1.6,0.09-2.38-0.18
		c-1.26,0.24-1.63-0.74-1.39-1.51c0.57-1.78-0.18-3.48-0.04-5.24c0.15-1.86,0.92-3.62,0.7-5.51c0.05-1.02,0.09-2.04,0.49-3
		c0.39-1.2,0.85-2.38,0.74-3.68c-0.03-0.28,0.01-0.58,0.13-0.81c0.55-1.04,0.7-2.16,0.8-3.3c0.15-0.49,0.16-1.14,0.97-0.97
		c0.58,0.3,0.9,1.05,1.69,0.99c1.45,1.19,2.63,2.65,3.87,4.03c0.89,1,1.95,1.87,2.95,2.7c1.13,0.94,1.73,2.06,2.27,3.27
		c0.32,0.72,0.77,1.33,1.18,1.99c0.27,0.46,0.4,1,0.74,1.43c1.43,2.78,2.86,5.56,4.29,8.33c-0.31,0.66,0.25,1.03,0.49,1.51
		C269.32,379.7,268.84,379.46,268.54,379.47z"/>
	<path d="M136.25,388.22C136.25,388.22,136.25,388.22,136.25,388.22c-0.01,0-0.01,0-0.02,0L136.25,388.22z"/>
</g>
</svg>
